<?xml version="1.0" encoding="utf-8" standalone="no"?>
<!DOCTYPE svg PUBLIC "-//W3C//DTD SVG 1.1//EN"
  "http://www.w3.org/Graphics/SVG/1.1/DTD/svg11.dtd">
<svg xmlns:xlink="http://www.w3.org/1999/xlink" width="460.8pt" height="345.6pt" viewBox="0 0 460.8 345.6" xmlns="http://www.w3.org/2000/svg" version="1.1">
 <metadata>
  <rdf:RDF xmlns:dc="http://purl.org/dc/elements/1.1/" xmlns:cc="http://creativecommons.org/ns#" xmlns:rdf="http://www.w3.org/1999/02/22-rdf-syntax-ns#">
   <cc:Work>
    <dc:type rdf:resource="http://purl.org/dc/dcmitype/StillImage"/>
    <dc:date>2025-02-03T02:56:13.498064</dc:date>
    <dc:format>image/svg+xml</dc:format>
    <dc:creator>
     <cc:Agent>
      <dc:title>Matplotlib v3.9.2, https://matplotlib.org/</dc:title>
     </cc:Agent>
    </dc:creator>
   </cc:Work>
  </rdf:RDF>
 </metadata>
 <defs>
  <style type="text/css">*{stroke-linejoin: round; stroke-linecap: butt}</style>
 </defs>
 <g id="figure_1">
  <g id="patch_1">
   <path d="M 0 345.6 
L 460.8 345.6 
L 460.8 0 
L 0 0 
z
" style="fill: #ffffff"/>
  </g>
  <g id="axes_1">
   <g id="patch_2">
    <path d="M 193.58208 174.528 
L 278.73792 174.528 
L 278.73792 174.528 
L 193.58208 174.528 
z
" clip-path="url(#p71e664c914)" style="fill: #008000"/>
   </g>
   <g id="patch_3">
    <path d="M 300.02688 174.528 
L 385.18272 174.528 
L 385.18272 174.528 
L 300.02688 174.528 
z
" clip-path="url(#p71e664c914)" style="fill: #008000"/>
   </g>
   <g id="patch_4">
    <path d="M 406.47168 174.528 
L 491.62752 174.528 
L 491.62752 -1156.032 
L 406.47168 -1156.032 
z
" clip-path="url(#p71e664c914)" style="fill: #008000"/>
   </g>
   <g id="patch_5">
    <path d="M 512.91648 174.528 
L 598.07232 174.528 
L 598.07232 174.528 
L 512.91648 174.528 
z
" clip-path="url(#p71e664c914)" style="fill: #008000"/>
   </g>
   <g id="patch_6">
    <path d="M 619.36128 174.528 
L 704.51712 174.528 
L 704.51712 -560.512818 
L 619.36128 -560.512818 
z
" clip-path="url(#p71e664c914)" style="fill: #008000"/>
   </g>
   <g id="patch_7">
    <path d="M 725.80608 174.528 
L 810.96192 174.528 
L 810.96192 174.528 
L 725.80608 174.528 
z
" clip-path="url(#p71e664c914)" style="fill: #008000"/>
   </g>
   <g id="patch_8">
    <path d="M 832.25088 174.528 
L 917.40672 174.528 
L 917.40672 118.504421 
L 832.25088 118.504421 
z
" clip-path="url(#p71e664c914)" style="fill: #008000"/>
   </g>
   <g id="patch_9">
    <path d="M 938.69568 174.528 
L 1023.85152 174.528 
L 1023.85152 174.528 
L 938.69568 174.528 
z
" clip-path="url(#p71e664c914)" style="fill: #008000"/>
   </g>
   <g id="patch_10">
    <path d="M 1045.14048 174.528 
L 1130.29632 174.528 
L 1130.29632 174.528 
L 1045.14048 174.528 
z
" clip-path="url(#p71e664c914)" style="fill: #008000"/>
   </g>
   <g id="patch_11">
    <path d="M 1151.58528 174.528 
L 1236.74112 174.528 
L 1236.74112 174.528 
L 1151.58528 174.528 
z
" clip-path="url(#p71e664c914)" style="fill: #008000"/>
   </g>
   <g id="patch_12">
    <path d="M 1258.03008 174.528 
L 1343.18592 174.528 
L 1343.18592 174.528 
L 1258.03008 174.528 
z
" clip-path="url(#p71e664c914)" style="fill: #008000"/>
   </g>
   <g id="patch_13">
    <path d="M 1364.47488 174.528 
L 1449.63072 174.528 
L 1449.63072 -1599.552 
L 1364.47488 -1599.552 
z
" clip-path="url(#p71e664c914)" style="fill: #008000"/>
   </g>
   <g id="patch_14">
    <path d="M 1470.91968 174.528 
L 1556.07552 174.528 
L 1556.07552 -292.335158 
L 1470.91968 -292.335158 
z
" clip-path="url(#p71e664c914)" style="fill: #008000"/>
   </g>
   <g id="patch_15">
    <path d="M 1577.36448 174.528 
L 1662.52032 174.528 
L 1662.52032 174.528 
L 1577.36448 174.528 
z
" clip-path="url(#p71e664c914)" style="fill: #008000"/>
   </g>
   <g id="patch_16">
    <path d="M 1683.80928 174.528 
L 1768.96512 174.528 
L 1768.96512 174.528 
L 1683.80928 174.528 
z
" clip-path="url(#p71e664c914)" style="fill: #008000"/>
   </g>
   <g id="patch_17">
    <path d="M 1790.25408 174.528 
L 1875.40992 174.528 
L 1875.40992 174.528 
L 1790.25408 174.528 
z
" clip-path="url(#p71e664c914)" style="fill: #008000"/>
   </g>
   <g id="patch_18">
    <path d="M 1896.69888 174.528 
L 1981.85472 174.528 
L 1981.85472 174.528 
L 1896.69888 174.528 
z
" clip-path="url(#p71e664c914)" style="fill: #008000"/>
   </g>
   <g id="patch_19">
    <path d="M 2003.14368 174.528 
L 2088.29952 174.528 
L 2088.29952 115.061631 
L 2003.14368 115.061631 
z
" clip-path="url(#p71e664c914)" style="fill: #0000ff"/>
   </g>
   <g id="patch_20">
    <path d="M 2109.58848 174.528 
L 2194.74432 174.528 
L 2194.74432 85.824 
L 2109.58848 85.824 
z
" clip-path="url(#p71e664c914)" style="fill: #0000ff"/>
   </g>
   <g id="patch_21">
    <path d="M 2216.03328 174.528 
L 2301.18912 174.528 
L 2301.18912 -327.232 
L 2216.03328 -327.232 
z
" clip-path="url(#p71e664c914)" style="fill: #0000ff"/>
   </g>
   <g id="patch_22">
    <path d="M 2322.47808 174.528 
L 2407.63392 174.528 
L 2407.63392 -221.043892 
L 2322.47808 -221.043892 
z
" clip-path="url(#p71e664c914)" style="fill: #ff0000"/>
   </g>
   <g id="patch_23">
    <path d="M 2428.92288 174.528 
L 2514.07872 174.528 
L 2514.07872 -278.814419 
L 2428.92288 -278.814419 
z
" clip-path="url(#p71e664c914)" style="fill: #ff0000"/>
   </g>
   <g id="patch_24">
    <path d="M 2535.36768 174.528 
L 2620.52352 174.528 
L 2620.52352 -221.043892 
L 2535.36768 -221.043892 
z
" clip-path="url(#p71e664c914)"/>
   </g>
   <g id="patch_25">
    <path d="M 342.6048 174.528 
C 342.6048 174.528 342.6048 174.528 342.6048 174.528 
L 236.16 174.528 
z
" style="fill: #1f77b4"/>
   </g>
   <g id="patch_26">
    <path d="M 342.6048 174.528 
C 342.6048 174.528 342.6048 174.528 342.6048 174.528 
L 236.16 174.528 
z
" style="fill: #ff7f0e"/>
   </g>
   <g id="patch_27">
    <path d="M 342.6048 174.528 
C 342.6048 172.572284 342.550901 170.61694 342.443165 168.664194 
C 342.335429 166.711448 342.173897 164.762043 341.958752 162.818197 
L 236.16 174.528 
z
" style="fill: #2ca02c"/>
   </g>
   <g id="patch_28">
    <path d="M 341.958752 162.818197 
C 341.958752 162.818197 341.958752 162.818197 341.958752 162.818197 
L 236.16 174.528 
z
" style="fill: #d62728"/>
   </g>
   <g id="patch_29">
    <path d="M 341.958752 162.818197 
C 339.021418 136.279214 326.203268 111.793233 306.067836 94.257271 
C 285.932405 76.72131 259.917882 67.387886 233.22698 68.123616 
C 206.536078 68.859347 181.075215 79.611682 161.936377 98.230233 
C 142.79754 116.848784 131.347733 142.003707 129.876834 168.664202 
L 236.16 174.528 
z
" style="fill: #9467bd"/>
   </g>
   <g id="patch_30">
    <path d="M 129.876834 168.664202 
C 129.876834 168.664202 129.876834 168.664202 129.876834 168.664202 
L 236.16 174.528 
z
" style="fill: #8c564b"/>
   </g>
   <g id="patch_31">
    <path d="M 129.876834 168.664202 
C 129.769098 170.616948 129.7152 172.572292 129.7152 174.528007 
C 129.7152 176.483723 129.769099 178.439067 129.876835 180.391813 
L 236.16 174.528 
z
" style="fill: #e377c2"/>
   </g>
   <g id="patch_32">
    <path d="M 129.876835 180.391813 
C 129.876835 180.391813 129.876835 180.391813 129.876835 180.391813 
L 236.16 174.528 
z
" style="fill: #7f7f7f"/>
   </g>
   <g id="patch_33">
    <path d="M 129.876835 180.391813 
C 129.876835 180.391813 129.876835 180.391813 129.876835 180.391813 
L 236.16 174.528 
z
" style="fill: #bcbd22"/>
   </g>
   <g id="patch_34">
    <path d="M 129.876835 180.391813 
C 129.876835 180.391813 129.876835 180.391813 129.876835 180.391813 
L 236.16 174.528 
z
" style="fill: #17becf"/>
   </g>
   <g id="patch_35">
    <path d="M 129.876835 180.391813 
C 129.876835 180.391813 129.876835 180.391813 129.876835 180.391813 
L 236.16 174.528 
z
" style="fill: #1f77b4"/>
   </g>
   <g id="patch_36">
    <path d="M 129.876835 180.391813 
C 129.984571 182.344559 130.146104 184.293965 130.361249 186.237811 
C 130.576394 188.181656 130.845069 190.119204 131.16697 192.048246 
L 236.16 174.528 
z
" style="fill: #ff7f0e"/>
   </g>
   <g id="patch_37">
    <path d="M 131.16697 192.048246 
C 135.229817 216.395545 147.637831 238.587494 166.252167 254.798732 
C 184.866504 271.009969 208.552405 280.252235 233.22699 280.932384 
C 257.901574 281.612533 282.060644 273.689102 301.539754 258.5279 
C 321.018863 243.366699 334.630538 221.891977 340.028452 197.80546 
L 236.16 174.528 
z
" style="fill: #2ca02c"/>
   </g>
   <g id="patch_38">
    <path d="M 340.028452 197.80546 
C 340.028452 197.80546 340.028452 197.80546 340.028452 197.80546 
L 236.16 174.528 
z
" style="fill: #d62728"/>
   </g>
   <g id="patch_39">
    <path d="M 340.028452 197.80546 
C 340.028452 197.80546 340.028452 197.80546 340.028452 197.80546 
L 236.16 174.528 
z
" style="fill: #9467bd"/>
   </g>
   <g id="patch_40">
    <path d="M 340.028452 197.80546 
C 340.028452 197.80546 340.028452 197.80546 340.028452 197.80546 
L 236.16 174.528 
z
" style="fill: #8c564b"/>
   </g>
   <g id="patch_41">
    <path d="M 340.028452 197.80546 
C 340.028452 197.80546 340.028452 197.80546 340.028452 197.80546 
L 236.16 174.528 
z
" style="fill: #e377c2"/>
   </g>
   <g id="patch_42">
    <path d="M 340.028452 197.80546 
C 340.45613 195.89708 340.831132 193.977276 341.153032 192.048233 
C 341.474933 190.119191 341.743608 188.181644 341.958753 186.237798 
L 236.16 174.528 
z
" style="fill: #7f7f7f"/>
   </g>
   <g id="patch_43">
    <path d="M 341.958753 186.237798 
C 342.173897 184.293952 342.33543 182.344547 342.443166 180.391801 
C 342.550901 178.439055 342.6048 176.483711 342.6048 174.527995 
L 236.16 174.528 
z
" style="fill: #bcbd22"/>
   </g>
   <g id="matplotlib.axis_1">
    <g id="text_1">
     <!-- file type -->
     <g transform="translate(215.785781 319.182437) scale(0.1 -0.1)">
      <defs>
       <path id="DejaVuSans-66" d="M 2375 4863 
L 2375 4384 
L 1825 4384 
Q 1516 4384 1395 4259 
Q 1275 4134 1275 3809 
L 1275 3500 
L 2222 3500 
L 2222 3053 
L 1275 3053 
L 1275 0 
L 697 0 
L 697 3053 
L 147 3053 
L 147 3500 
L 697 3500 
L 697 3744 
Q 697 4328 969 4595 
Q 1241 4863 1831 4863 
L 2375 4863 
z
" transform="scale(0.015625)"/>
       <path id="DejaVuSans-69" d="M 603 3500 
L 1178 3500 
L 1178 0 
L 603 0 
L 603 3500 
z
M 603 4863 
L 1178 4863 
L 1178 4134 
L 603 4134 
L 603 4863 
z
" transform="scale(0.015625)"/>
       <path id="DejaVuSans-6c" d="M 603 4863 
L 1178 4863 
L 1178 0 
L 603 0 
L 603 4863 
z
" transform="scale(0.015625)"/>
       <path id="DejaVuSans-65" d="M 3597 1894 
L 3597 1613 
L 953 1613 
Q 991 1019 1311 708 
Q 1631 397 2203 397 
Q 2534 397 2845 478 
Q 3156 559 3463 722 
L 3463 178 
Q 3153 47 2828 -22 
Q 2503 -91 2169 -91 
Q 1331 -91 842 396 
Q 353 884 353 1716 
Q 353 2575 817 3079 
Q 1281 3584 2069 3584 
Q 2775 3584 3186 3129 
Q 3597 2675 3597 1894 
z
M 3022 2063 
Q 3016 2534 2758 2815 
Q 2500 3097 2075 3097 
Q 1594 3097 1305 2825 
Q 1016 2553 972 2059 
L 3022 2063 
z
" transform="scale(0.015625)"/>
       <path id="DejaVuSans-20" transform="scale(0.015625)"/>
       <path id="DejaVuSans-74" d="M 1172 4494 
L 1172 3500 
L 2356 3500 
L 2356 3053 
L 1172 3053 
L 1172 1153 
Q 1172 725 1289 603 
Q 1406 481 1766 481 
L 2356 481 
L 2356 0 
L 1766 0 
Q 1100 0 847 248 
Q 594 497 594 1153 
L 594 3053 
L 172 3053 
L 172 3500 
L 594 3500 
L 594 4494 
L 1172 4494 
z
" transform="scale(0.015625)"/>
       <path id="DejaVuSans-79" d="M 2059 -325 
Q 1816 -950 1584 -1140 
Q 1353 -1331 966 -1331 
L 506 -1331 
L 506 -850 
L 844 -850 
Q 1081 -850 1212 -737 
Q 1344 -625 1503 -206 
L 1606 56 
L 191 3500 
L 800 3500 
L 1894 763 
L 2988 3500 
L 3597 3500 
L 2059 -325 
z
" transform="scale(0.015625)"/>
       <path id="DejaVuSans-70" d="M 1159 525 
L 1159 -1331 
L 581 -1331 
L 581 3500 
L 1159 3500 
L 1159 2969 
Q 1341 3281 1617 3432 
Q 1894 3584 2278 3584 
Q 2916 3584 3314 3078 
Q 3713 2572 3713 1747 
Q 3713 922 3314 415 
Q 2916 -91 2278 -91 
Q 1894 -91 1617 61 
Q 1341 213 1159 525 
z
M 3116 1747 
Q 3116 2381 2855 2742 
Q 2594 3103 2138 3103 
Q 1681 3103 1420 2742 
Q 1159 2381 1159 1747 
Q 1159 1113 1420 752 
Q 1681 391 2138 391 
Q 2594 391 2855 752 
Q 3116 1113 3116 1747 
z
" transform="scale(0.015625)"/>
      </defs>
      <use xlink:href="#DejaVuSans-66"/>
      <use xlink:href="#DejaVuSans-69" x="35.205078"/>
      <use xlink:href="#DejaVuSans-6c" x="62.988281"/>
      <use xlink:href="#DejaVuSans-65" x="90.771484"/>
      <use xlink:href="#DejaVuSans-20" x="152.294922"/>
      <use xlink:href="#DejaVuSans-74" x="184.082031"/>
      <use xlink:href="#DejaVuSans-79" x="223.291016"/>
      <use xlink:href="#DejaVuSans-70" x="282.470703"/>
      <use xlink:href="#DejaVuSans-65" x="345.947266"/>
     </g>
    </g>
   </g>
   <g id="matplotlib.axis_2">
    <g id="text_2">
     <!-- % mis-match -->
     <g transform="translate(97.024313 207.348312) rotate(-90) scale(0.1 -0.1)">
      <defs>
       <path id="DejaVuSans-25" d="M 4653 2053 
Q 4381 2053 4226 1822 
Q 4072 1591 4072 1178 
Q 4072 772 4226 539 
Q 4381 306 4653 306 
Q 4919 306 5073 539 
Q 5228 772 5228 1178 
Q 5228 1588 5073 1820 
Q 4919 2053 4653 2053 
z
M 4653 2450 
Q 5147 2450 5437 2106 
Q 5728 1763 5728 1178 
Q 5728 594 5436 251 
Q 5144 -91 4653 -91 
Q 4153 -91 3862 251 
Q 3572 594 3572 1178 
Q 3572 1766 3864 2108 
Q 4156 2450 4653 2450 
z
M 1428 4353 
Q 1159 4353 1004 4120 
Q 850 3888 850 3481 
Q 850 3069 1003 2837 
Q 1156 2606 1428 2606 
Q 1700 2606 1854 2837 
Q 2009 3069 2009 3481 
Q 2009 3884 1853 4118 
Q 1697 4353 1428 4353 
z
M 4250 4750 
L 4750 4750 
L 1831 -91 
L 1331 -91 
L 4250 4750 
z
M 1428 4750 
Q 1922 4750 2215 4408 
Q 2509 4066 2509 3481 
Q 2509 2891 2217 2550 
Q 1925 2209 1428 2209 
Q 931 2209 642 2551 
Q 353 2894 353 3481 
Q 353 4063 643 4406 
Q 934 4750 1428 4750 
z
" transform="scale(0.015625)"/>
       <path id="DejaVuSans-6d" d="M 3328 2828 
Q 3544 3216 3844 3400 
Q 4144 3584 4550 3584 
Q 5097 3584 5394 3201 
Q 5691 2819 5691 2113 
L 5691 0 
L 5113 0 
L 5113 2094 
Q 5113 2597 4934 2840 
Q 4756 3084 4391 3084 
Q 3944 3084 3684 2787 
Q 3425 2491 3425 1978 
L 3425 0 
L 2847 0 
L 2847 2094 
Q 2847 2600 2669 2842 
Q 2491 3084 2119 3084 
Q 1678 3084 1418 2786 
Q 1159 2488 1159 1978 
L 1159 0 
L 581 0 
L 581 3500 
L 1159 3500 
L 1159 2956 
Q 1356 3278 1631 3431 
Q 1906 3584 2284 3584 
Q 2666 3584 2933 3390 
Q 3200 3197 3328 2828 
z
" transform="scale(0.015625)"/>
       <path id="DejaVuSans-73" d="M 2834 3397 
L 2834 2853 
Q 2591 2978 2328 3040 
Q 2066 3103 1784 3103 
Q 1356 3103 1142 2972 
Q 928 2841 928 2578 
Q 928 2378 1081 2264 
Q 1234 2150 1697 2047 
L 1894 2003 
Q 2506 1872 2764 1633 
Q 3022 1394 3022 966 
Q 3022 478 2636 193 
Q 2250 -91 1575 -91 
Q 1294 -91 989 -36 
Q 684 19 347 128 
L 347 722 
Q 666 556 975 473 
Q 1284 391 1588 391 
Q 1994 391 2212 530 
Q 2431 669 2431 922 
Q 2431 1156 2273 1281 
Q 2116 1406 1581 1522 
L 1381 1569 
Q 847 1681 609 1914 
Q 372 2147 372 2553 
Q 372 3047 722 3315 
Q 1072 3584 1716 3584 
Q 2034 3584 2315 3537 
Q 2597 3491 2834 3397 
z
" transform="scale(0.015625)"/>
       <path id="DejaVuSans-2d" d="M 313 2009 
L 1997 2009 
L 1997 1497 
L 313 1497 
L 313 2009 
z
" transform="scale(0.015625)"/>
       <path id="DejaVuSans-61" d="M 2194 1759 
Q 1497 1759 1228 1600 
Q 959 1441 959 1056 
Q 959 750 1161 570 
Q 1363 391 1709 391 
Q 2188 391 2477 730 
Q 2766 1069 2766 1631 
L 2766 1759 
L 2194 1759 
z
M 3341 1997 
L 3341 0 
L 2766 0 
L 2766 531 
Q 2569 213 2275 61 
Q 1981 -91 1556 -91 
Q 1019 -91 701 211 
Q 384 513 384 1019 
Q 384 1609 779 1909 
Q 1175 2209 1959 2209 
L 2766 2209 
L 2766 2266 
Q 2766 2663 2505 2880 
Q 2244 3097 1772 3097 
Q 1472 3097 1187 3025 
Q 903 2953 641 2809 
L 641 3341 
Q 956 3463 1253 3523 
Q 1550 3584 1831 3584 
Q 2591 3584 2966 3190 
Q 3341 2797 3341 1997 
z
" transform="scale(0.015625)"/>
       <path id="DejaVuSans-63" d="M 3122 3366 
L 3122 2828 
Q 2878 2963 2633 3030 
Q 2388 3097 2138 3097 
Q 1578 3097 1268 2742 
Q 959 2388 959 1747 
Q 959 1106 1268 751 
Q 1578 397 2138 397 
Q 2388 397 2633 464 
Q 2878 531 3122 666 
L 3122 134 
Q 2881 22 2623 -34 
Q 2366 -91 2075 -91 
Q 1284 -91 818 406 
Q 353 903 353 1747 
Q 353 2603 823 3093 
Q 1294 3584 2113 3584 
Q 2378 3584 2631 3529 
Q 2884 3475 3122 3366 
z
" transform="scale(0.015625)"/>
       <path id="DejaVuSans-68" d="M 3513 2113 
L 3513 0 
L 2938 0 
L 2938 2094 
Q 2938 2591 2744 2837 
Q 2550 3084 2163 3084 
Q 1697 3084 1428 2787 
Q 1159 2491 1159 1978 
L 1159 0 
L 581 0 
L 581 4863 
L 1159 4863 
L 1159 2956 
Q 1366 3272 1645 3428 
Q 1925 3584 2291 3584 
Q 2894 3584 3203 3211 
Q 3513 2838 3513 2113 
z
" transform="scale(0.015625)"/>
      </defs>
      <use xlink:href="#DejaVuSans-25"/>
      <use xlink:href="#DejaVuSans-20" x="95.019531"/>
      <use xlink:href="#DejaVuSans-6d" x="126.806641"/>
      <use xlink:href="#DejaVuSans-69" x="224.21875"/>
      <use xlink:href="#DejaVuSans-73" x="252.001953"/>
      <use xlink:href="#DejaVuSans-2d" x="304.101562"/>
      <use xlink:href="#DejaVuSans-6d" x="340.185547"/>
      <use xlink:href="#DejaVuSans-61" x="437.597656"/>
      <use xlink:href="#DejaVuSans-74" x="498.876953"/>
      <use xlink:href="#DejaVuSans-63" x="538.085938"/>
      <use xlink:href="#DejaVuSans-68" x="593.066406"/>
     </g>
    </g>
   </g>
   <g id="text_3">
    <!-- json -->
    <g transform="translate(310.67136 176.183625) scale(0.06 -0.06)">
     <defs>
      <path id="DejaVuSans-6a" d="M 603 3500 
L 1178 3500 
L 1178 -63 
Q 1178 -731 923 -1031 
Q 669 -1331 103 -1331 
L -116 -1331 
L -116 -844 
L 38 -844 
Q 366 -844 484 -692 
Q 603 -541 603 -63 
L 603 3500 
z
M 603 4863 
L 1178 4863 
L 1178 4134 
L 603 4134 
L 603 4863 
z
" transform="scale(0.015625)"/>
      <path id="DejaVuSans-6f" d="M 1959 3097 
Q 1497 3097 1228 2736 
Q 959 2375 959 1747 
Q 959 1119 1226 758 
Q 1494 397 1959 397 
Q 2419 397 2687 759 
Q 2956 1122 2956 1747 
Q 2956 2369 2687 2733 
Q 2419 3097 1959 3097 
z
M 1959 3584 
Q 2709 3584 3137 3096 
Q 3566 2609 3566 1747 
Q 3566 888 3137 398 
Q 2709 -91 1959 -91 
Q 1206 -91 779 398 
Q 353 888 353 1747 
Q 353 2609 779 3096 
Q 1206 3584 1959 3584 
z
" transform="scale(0.015625)"/>
      <path id="DejaVuSans-6e" d="M 3513 2113 
L 3513 0 
L 2938 0 
L 2938 2094 
Q 2938 2591 2744 2837 
Q 2550 3084 2163 3084 
Q 1697 3084 1428 2787 
Q 1159 2491 1159 1978 
L 1159 0 
L 581 0 
L 581 3500 
L 1159 3500 
L 1159 2956 
Q 1366 3272 1645 3428 
Q 1925 3584 2291 3584 
Q 2894 3584 3203 3211 
Q 3513 2838 3513 2113 
z
" transform="scale(0.015625)"/>
     </defs>
     <use xlink:href="#DejaVuSans-6a"/>
     <use xlink:href="#DejaVuSans-73" x="27.783203"/>
     <use xlink:href="#DejaVuSans-6f" x="79.882812"/>
     <use xlink:href="#DejaVuSans-6e" x="141.064453"/>
    </g>
   </g>
   <g id="text_4">
    <!-- yaml -->
    <g transform="translate(310.67136 176.183625) scale(0.06 -0.06)">
     <use xlink:href="#DejaVuSans-79"/>
     <use xlink:href="#DejaVuSans-61" x="59.179688"/>
     <use xlink:href="#DejaVuSans-6d" x="120.458984"/>
     <use xlink:href="#DejaVuSans-6c" x="217.871094"/>
    </g>
   </g>
   <g id="text_5">
    <!-- yml -->
    <g transform="translate(310.558216 172.078961) scale(0.06 -0.06)">
     <use xlink:href="#DejaVuSans-79"/>
     <use xlink:href="#DejaVuSans-6d" x="59.179688"/>
     <use xlink:href="#DejaVuSans-6c" x="156.591797"/>
    </g>
   </g>
   <g id="text_6">
    <!-- png -->
    <g transform="translate(310.219127 167.986763) scale(0.06 -0.06)">
     <defs>
      <path id="DejaVuSans-67" d="M 2906 1791 
Q 2906 2416 2648 2759 
Q 2391 3103 1925 3103 
Q 1463 3103 1205 2759 
Q 947 2416 947 1791 
Q 947 1169 1205 825 
Q 1463 481 1925 481 
Q 2391 481 2648 825 
Q 2906 1169 2906 1791 
z
M 3481 434 
Q 3481 -459 3084 -895 
Q 2688 -1331 1869 -1331 
Q 1566 -1331 1297 -1286 
Q 1028 -1241 775 -1147 
L 775 -588 
Q 1028 -725 1275 -790 
Q 1522 -856 1778 -856 
Q 2344 -856 2625 -561 
Q 2906 -266 2906 331 
L 2906 616 
Q 2728 306 2450 153 
Q 2172 0 1784 0 
Q 1141 0 747 490 
Q 353 981 353 1791 
Q 353 2603 747 3093 
Q 1141 3584 1784 3584 
Q 2172 3584 2450 3431 
Q 2728 3278 2906 2969 
L 2906 3500 
L 3481 3500 
L 3481 434 
z
" transform="scale(0.015625)"/>
     </defs>
     <use xlink:href="#DejaVuSans-70"/>
     <use xlink:href="#DejaVuSans-6e" x="63.476562"/>
     <use xlink:href="#DejaVuSans-67" x="126.855469"/>
    </g>
   </g>
   <g id="text_7">
    <!-- rst -->
    <g transform="translate(226.162511 101.700557) scale(0.06 -0.06)">
     <defs>
      <path id="DejaVuSans-72" d="M 2631 2963 
Q 2534 3019 2420 3045 
Q 2306 3072 2169 3072 
Q 1681 3072 1420 2755 
Q 1159 2438 1159 1844 
L 1159 0 
L 581 0 
L 581 3500 
L 1159 3500 
L 1159 2956 
Q 1341 3275 1631 3429 
Q 1922 3584 2338 3584 
Q 2397 3584 2469 3576 
Q 2541 3569 2628 3553 
L 2631 2963 
z
" transform="scale(0.015625)"/>
     </defs>
     <use xlink:href="#DejaVuSans-72"/>
     <use xlink:href="#DejaVuSans-73" x="41.113281"/>
     <use xlink:href="#DejaVuSans-74" x="93.212891"/>
    </g>
   </g>
   <g id="text_8">
    <!-- md -->
    <g transform="translate(152.108346 172.078966) scale(0.06 -0.06)">
     <defs>
      <path id="DejaVuSans-64" d="M 2906 2969 
L 2906 4863 
L 3481 4863 
L 3481 0 
L 2906 0 
L 2906 525 
Q 2725 213 2448 61 
Q 2172 -91 1784 -91 
Q 1150 -91 751 415 
Q 353 922 353 1747 
Q 353 2572 751 3078 
Q 1150 3584 1784 3584 
Q 2172 3584 2448 3432 
Q 2725 3281 2906 2969 
z
M 947 1747 
Q 947 1113 1208 752 
Q 1469 391 1925 391 
Q 2381 391 2643 752 
Q 2906 1113 2906 1747 
Q 2906 2381 2643 2742 
Q 2381 3103 1925 3103 
Q 1469 3103 1208 2742 
Q 947 2381 947 1747 
z
" transform="scale(0.015625)"/>
     </defs>
     <use xlink:href="#DejaVuSans-6d"/>
     <use xlink:href="#DejaVuSans-64" x="97.412109"/>
    </g>
   </g>
   <g id="text_9">
    <!-- txt -->
    <g transform="translate(153.393015 176.18363) scale(0.06 -0.06)">
     <defs>
      <path id="DejaVuSans-78" d="M 3513 3500 
L 2247 1797 
L 3578 0 
L 2900 0 
L 1881 1375 
L 863 0 
L 184 0 
L 1544 1831 
L 300 3500 
L 978 3500 
L 1906 2253 
L 2834 3500 
L 3513 3500 
z
" transform="scale(0.015625)"/>
     </defs>
     <use xlink:href="#DejaVuSans-74"/>
     <use xlink:href="#DejaVuSans-78" x="39.208984"/>
     <use xlink:href="#DejaVuSans-74" x="98.388672"/>
    </g>
   </g>
   <g id="text_10">
    <!-- editorconfig -->
    <g transform="translate(125.878035 180.288294) scale(0.06 -0.06)">
     <use xlink:href="#DejaVuSans-65"/>
     <use xlink:href="#DejaVuSans-64" x="61.523438"/>
     <use xlink:href="#DejaVuSans-69" x="125"/>
     <use xlink:href="#DejaVuSans-74" x="152.783203"/>
     <use xlink:href="#DejaVuSans-6f" x="191.992188"/>
     <use xlink:href="#DejaVuSans-72" x="253.173828"/>
     <use xlink:href="#DejaVuSans-63" x="292.037109"/>
     <use xlink:href="#DejaVuSans-6f" x="347.017578"/>
     <use xlink:href="#DejaVuSans-6e" x="408.199219"/>
     <use xlink:href="#DejaVuSans-66" x="471.578125"/>
     <use xlink:href="#DejaVuSans-69" x="506.783203"/>
     <use xlink:href="#DejaVuSans-67" x="534.566406"/>
    </g>
   </g>
   <g id="text_11">
    <!-- ini -->
    <g transform="translate(154.625535 180.288294) scale(0.06 -0.06)">
     <use xlink:href="#DejaVuSans-69"/>
     <use xlink:href="#DejaVuSans-6e" x="27.783203"/>
     <use xlink:href="#DejaVuSans-69" x="91.162109"/>
    </g>
   </g>
   <g id="text_12">
    <!-- in -->
    <g transform="translate(156.29241 180.288294) scale(0.06 -0.06)">
     <use xlink:href="#DejaVuSans-69"/>
     <use xlink:href="#DejaVuSans-6e" x="27.783203"/>
    </g>
   </g>
   <g id="text_13">
    <!-- toml -->
    <g transform="translate(148.227097 180.288294) scale(0.06 -0.06)">
     <use xlink:href="#DejaVuSans-74"/>
     <use xlink:href="#DejaVuSans-6f" x="39.208984"/>
     <use xlink:href="#DejaVuSans-6d" x="100.390625"/>
     <use xlink:href="#DejaVuSans-6c" x="197.802734"/>
    </g>
   </g>
   <g id="text_14">
    <!-- gitignore -->
    <g transform="translate(135.299624 184.380492) scale(0.06 -0.06)">
     <use xlink:href="#DejaVuSans-67"/>
     <use xlink:href="#DejaVuSans-69" x="63.476562"/>
     <use xlink:href="#DejaVuSans-74" x="91.259766"/>
     <use xlink:href="#DejaVuSans-69" x="130.46875"/>
     <use xlink:href="#DejaVuSans-67" x="158.251953"/>
     <use xlink:href="#DejaVuSans-6e" x="221.728516"/>
     <use xlink:href="#DejaVuSans-6f" x="285.107422"/>
     <use xlink:href="#DejaVuSans-72" x="346.289062"/>
     <use xlink:href="#DejaVuSans-65" x="385.152344"/>
    </g>
   </g>
   <g id="text_15">
    <!-- py -->
    <g transform="translate(226.74658 250.666694) scale(0.06 -0.06)">
     <use xlink:href="#DejaVuSans-70"/>
     <use xlink:href="#DejaVuSans-79" x="63.476562"/>
    </g>
   </g>
   <g id="text_16">
    <!-- sh -->
    <g transform="translate(308.867916 192.477847) scale(0.06 -0.06)">
     <use xlink:href="#DejaVuSans-73"/>
     <use xlink:href="#DejaVuSans-68" x="52.099609"/>
    </g>
   </g>
   <g id="text_17">
    <!-- cfg -->
    <g transform="translate(308.867916 192.477847) scale(0.06 -0.06)">
     <use xlink:href="#DejaVuSans-63"/>
     <use xlink:href="#DejaVuSans-66" x="54.980469"/>
     <use xlink:href="#DejaVuSans-67" x="90.185547"/>
    </g>
   </g>
   <g id="text_18">
    <!-- html -->
    <g transform="translate(308.867916 192.477847) scale(0.06 -0.06)">
     <use xlink:href="#DejaVuSans-68"/>
     <use xlink:href="#DejaVuSans-74" x="63.378906"/>
     <use xlink:href="#DejaVuSans-6d" x="102.587891"/>
     <use xlink:href="#DejaVuSans-6c" x="200"/>
    </g>
   </g>
   <g id="text_19">
    <!-- flake8 -->
    <g transform="translate(308.867916 192.477847) scale(0.06 -0.06)">
     <defs>
      <path id="DejaVuSans-6b" d="M 581 4863 
L 1159 4863 
L 1159 1991 
L 2875 3500 
L 3609 3500 
L 1753 1863 
L 3688 0 
L 2938 0 
L 1159 1709 
L 1159 0 
L 581 0 
L 581 4863 
z
" transform="scale(0.015625)"/>
      <path id="DejaVuSans-38" d="M 2034 2216 
Q 1584 2216 1326 1975 
Q 1069 1734 1069 1313 
Q 1069 891 1326 650 
Q 1584 409 2034 409 
Q 2484 409 2743 651 
Q 3003 894 3003 1313 
Q 3003 1734 2745 1975 
Q 2488 2216 2034 2216 
z
M 1403 2484 
Q 997 2584 770 2862 
Q 544 3141 544 3541 
Q 544 4100 942 4425 
Q 1341 4750 2034 4750 
Q 2731 4750 3128 4425 
Q 3525 4100 3525 3541 
Q 3525 3141 3298 2862 
Q 3072 2584 2669 2484 
Q 3125 2378 3379 2068 
Q 3634 1759 3634 1313 
Q 3634 634 3220 271 
Q 2806 -91 2034 -91 
Q 1263 -91 848 271 
Q 434 634 434 1313 
Q 434 1759 690 2068 
Q 947 2378 1403 2484 
z
M 1172 3481 
Q 1172 3119 1398 2916 
Q 1625 2713 2034 2713 
Q 2441 2713 2670 2916 
Q 2900 3119 2900 3481 
Q 2900 3844 2670 4047 
Q 2441 4250 2034 4250 
Q 1625 4250 1398 4047 
Q 1172 3844 1172 3481 
z
" transform="scale(0.015625)"/>
     </defs>
     <use xlink:href="#DejaVuSans-66"/>
     <use xlink:href="#DejaVuSans-6c" x="35.205078"/>
     <use xlink:href="#DejaVuSans-61" x="62.988281"/>
     <use xlink:href="#DejaVuSans-6b" x="124.267578"/>
     <use xlink:href="#DejaVuSans-65" x="178.552734"/>
     <use xlink:href="#DejaVuSans-38" x="240.076172"/>
    </g>
   </g>
   <g id="text_20">
    <!-- data -->
    <g transform="translate(309.655123 188.447788) scale(0.06 -0.06)">
     <use xlink:href="#DejaVuSans-64"/>
     <use xlink:href="#DejaVuSans-61" x="63.476562"/>
     <use xlink:href="#DejaVuSans-74" x="124.755859"/>
     <use xlink:href="#DejaVuSans-61" x="163.964844"/>
    </g>
   </g>
   <g id="text_21">
    <!-- config -->
    <g transform="translate(310.558216 180.288285) scale(0.06 -0.06)">
     <use xlink:href="#DejaVuSans-63"/>
     <use xlink:href="#DejaVuSans-6f" x="54.980469"/>
     <use xlink:href="#DejaVuSans-6e" x="116.162109"/>
     <use xlink:href="#DejaVuSans-66" x="179.541016"/>
     <use xlink:href="#DejaVuSans-69" x="214.746094"/>
     <use xlink:href="#DejaVuSans-67" x="242.529297"/>
    </g>
   </g>
  </g>
 </g>
 <defs>
  <clipPath id="p71e664c914">
   <rect x="103.104" y="41.472" width="266.112" height="266.112"/>
  </clipPath>
 </defs>
</svg>
