<?xml version="1.0" encoding="UTF-8" standalone="no"?>
<!DOCTYPE svg PUBLIC "-//W3C//DTD SVG 1.1//EN"
 "http://www.w3.org/Graphics/SVG/1.1/DTD/svg11.dtd">
<!-- Generated by graphviz version 2.43.0 (0)
 -->
<!-- Title: G Pages: 1 -->
<svg width="1626pt" height="613pt"
 viewBox="0.00 0.00 1626.11 612.97" xmlns="http://www.w3.org/2000/svg" xmlns:xlink="http://www.w3.org/1999/xlink">
<g id="graph0" class="graph" transform="scale(1 1) rotate(0) translate(4 608.97)">
<title>G</title><style>.edge>path:hover{stroke-width:8}</style>
<polygon fill="white" stroke="transparent" points="-4,4 -4,-608.97 1622.11,-608.97 1622.11,4 -4,4"/>
<!-- pandas -->
<g id="node1" class="node">
<title>pandas</title><style>.edge>path:hover{stroke-width:8}</style>
<polygon fill="blue" stroke="black" points="1163.61,-36 1109.61,-36 1109.61,0 1163.61,0 1163.61,-36"/>
<text text-anchor="middle" x="1136.61" y="-15.5" font-family="Helvetica,sans-Serif" font-size="10.00" fill="white">pandas</text>
</g>
<!-- pandas__config -->
<g id="node2" class="node">
<title>pandas__config</title><style>.edge>path:hover{stroke-width:8}</style>
<polygon fill="blue" stroke="black" points="494.11,-375.97 405.11,-375.97 405.11,-339.97 494.11,-339.97 494.11,-375.97"/>
<text text-anchor="middle" x="449.61" y="-355.47" font-family="Helvetica,sans-Serif" font-size="10.00" fill="white">pandas._config</text>
</g>
<!-- pandas__config&#45;&gt;pandas -->
<g id="edge1" class="edge">
<title>pandas__config&#45;&gt;pandas</title><style>.edge>path:hover{stroke-width:8}</style>
<path fill="none" stroke="black" d="M462.23,-339.74C473.83,-321.7 487.92,-292.6 478.61,-267.97"/>
<path fill="none" stroke="black" d="M478.61,-265.97C460.46,-217.92 411.71,-225.27 408.61,-173.99"/>
</g>
<!-- pandas_core_config_init -->
<g id="node17" class="node">
<title>pandas_core_config_init</title><style>.edge>path:hover{stroke-width:8}</style>
<polygon fill="blue" stroke="black" points="633.11,-193.49 566.11,-193.49 566.11,-152.49 633.11,-152.49 633.11,-193.49"/>
<text text-anchor="middle" x="599.61" y="-181.49" font-family="Helvetica,sans-Serif" font-size="10.00" fill="white">pandas.</text>
<text text-anchor="middle" x="599.61" y="-170.49" font-family="Helvetica,sans-Serif" font-size="10.00" fill="white">core.</text>
<text text-anchor="middle" x="599.61" y="-159.49" font-family="Helvetica,sans-Serif" font-size="10.00" fill="white">config_init</text>
</g>
<!-- pandas__config&#45;&gt;pandas_core_config_init -->
<g id="edge2" class="edge">
<title>pandas__config&#45;&gt;pandas_core_config_init</title><style>.edge>path:hover{stroke-width:8}</style>
<path fill="none" stroke="black" d="M494.15,-345.1C554.77,-328.84 656.61,-301.03 663.61,-295.97 675.8,-287.16 681.71,-282.98 682.61,-267.97"/>
<path fill="none" stroke="black" d="M682.61,-265.97C684.29,-238.18 663.05,-214.97 641.63,-198.82"/>
<polygon fill="blue" stroke="black" points="643.64,-195.95 633.46,-192.98 639.56,-201.65 643.64,-195.95"/>
</g>
<!-- pandas_errors -->
<g id="node20" class="node">
<title>pandas_errors</title><style>.edge>path:hover{stroke-width:8}</style>
<polygon fill="blue" stroke="black" points="450.11,-284.97 367.11,-284.97 367.11,-248.97 450.11,-248.97 450.11,-284.97"/>
<text text-anchor="middle" x="408.61" y="-264.47" font-family="Helvetica,sans-Serif" font-size="10.00" fill="white">pandas.errors</text>
</g>
<!-- pandas__config&#45;&gt;pandas_errors -->
<g id="edge3" class="edge">
<title>pandas__config&#45;&gt;pandas_errors</title><style>.edge>path:hover{stroke-width:8}</style>
<path fill="none" stroke="black" d="M441.71,-339.81C435.75,-326.88 427.48,-308.93 420.7,-294.2"/>
<polygon fill="blue" stroke="black" points="423.86,-292.7 416.49,-285.08 417.5,-295.63 423.86,-292.7"/>
</g>
<!-- pandas__libs -->
<g id="node3" class="node">
<title>pandas__libs</title><style>.edge>path:hover{stroke-width:8}</style>
<polygon fill="blue" stroke="black" points="305.11,-604.97 228.11,-604.97 228.11,-568.97 305.11,-568.97 305.11,-604.97"/>
<text text-anchor="middle" x="266.61" y="-584.47" font-family="Helvetica,sans-Serif" font-size="10.00" fill="white">pandas._libs</text>
</g>
<!-- pandas__libs&#45;&gt;pandas -->
<g id="edge4" class="edge">
<title>pandas__libs&#45;&gt;pandas</title><style>.edge>path:hover{stroke-width:8}</style>
<path fill="none" stroke="black" d="M227.78,-582.98C183.73,-577.43 113.06,-561.51 74.61,-515.97"/>
<path fill="none" stroke="black" d="M74.61,-513.97C50.57,-485.48 25.6,-494.64 9.61,-460.97 -9.91,-419.86 6.22,-402.75 18.61,-358.97"/>
<path fill="none" stroke="black" d="M18.61,-356.97C29.29,-311.47 50.09,-307.75 74.61,-267.97"/>
<path fill="none" stroke="black" d="M74.61,-265.97C105.96,-215.12 127.47,-213.12 172.61,-173.99"/>
<path fill="none" stroke="black" d="M172.61,-171.99C256.41,-99.36 322.88,-161.33 408.61,-91"/>
<path fill="none" stroke="black" d="M408.61,-89C462.43,-44.85 958.22,-24.98 1099.31,-20.18"/>
<polygon fill="blue" stroke="black" points="1099.72,-23.67 1109.6,-19.84 1099.49,-16.67 1099.72,-23.67"/>
</g>
<!-- pandas_core_api -->
<g id="node12" class="node">
<title>pandas_core_api</title><style>.edge>path:hover{stroke-width:8}</style>
<polygon fill="blue" stroke="black" points="380.11,-193.49 325.11,-193.49 325.11,-152.49 380.11,-152.49 380.11,-193.49"/>
<text text-anchor="middle" x="352.61" y="-181.49" font-family="Helvetica,sans-Serif" font-size="10.00" fill="white">pandas.</text>
<text text-anchor="middle" x="352.61" y="-170.49" font-family="Helvetica,sans-Serif" font-size="10.00" fill="white">core.</text>
<text text-anchor="middle" x="352.61" y="-159.49" font-family="Helvetica,sans-Serif" font-size="10.00" fill="white">api</text>
</g>
<!-- pandas__libs&#45;&gt;pandas_core_api -->
<g id="edge5" class="edge">
<title>pandas__libs&#45;&gt;pandas_core_api</title><style>.edge>path:hover{stroke-width:8}</style>
<path fill="none" stroke="black" d="M74.61,-513.97C-4.94,-434.47 231.58,-462.86 274.61,-358.97"/>
<path fill="none" stroke="black" d="M274.61,-356.97C290.64,-310.96 196.55,-314.62 210.61,-267.97"/>
</g>
<!-- pandas__libs&#45;&gt;pandas_errors -->
<g id="edge6" class="edge">
<title>pandas__libs&#45;&gt;pandas_errors</title><style>.edge>path:hover{stroke-width:8}</style>
<path fill="none" stroke="black" d="M305.19,-572.03C323.5,-563.49 344.06,-550.74 356.61,-532.97 409.12,-458.65 377.89,-421.22 395.61,-331.97 398.03,-319.79 400.76,-306.33 403.09,-294.9"/>
<polygon fill="blue" stroke="black" points="406.52,-295.58 405.1,-285.08 399.66,-294.17 406.52,-295.58"/>
</g>
<!-- pandas_io_json__normalize -->
<g id="node24" class="node">
<title>pandas_io_json__normalize</title><style>.edge>path:hover{stroke-width:8}</style>
<polygon fill="blue" stroke="black" points="310.11,-292.97 239.11,-292.97 239.11,-240.97 310.11,-240.97 310.11,-292.97"/>
<text text-anchor="middle" x="274.61" y="-280.97" font-family="Helvetica,sans-Serif" font-size="10.00" fill="white">pandas.</text>
<text text-anchor="middle" x="274.61" y="-269.97" font-family="Helvetica,sans-Serif" font-size="10.00" fill="white">io.</text>
<text text-anchor="middle" x="274.61" y="-258.97" font-family="Helvetica,sans-Serif" font-size="10.00" fill="white">json.</text>
<text text-anchor="middle" x="274.61" y="-247.97" font-family="Helvetica,sans-Serif" font-size="10.00" fill="white">_normalize</text>
</g>
<!-- pandas__libs&#45;&gt;pandas_io_json__normalize -->
<g id="edge7" class="edge">
<title>pandas__libs&#45;&gt;pandas_io_json__normalize</title><style>.edge>path:hover{stroke-width:8}</style>
<path fill="none" stroke="black" d="M274.61,-356.97C281.57,-340.18 282.13,-320.04 280.71,-303.17"/>
<polygon fill="blue" stroke="black" points="284.18,-302.7 279.61,-293.14 277.22,-303.46 284.18,-302.7"/>
</g>
<!-- pandas_tseries_offsets -->
<g id="node29" class="node">
<title>pandas_tseries_offsets</title><style>.edge>path:hover{stroke-width:8}</style>
<polygon fill="blue" stroke="black" points="74.11,-460.97 19.11,-460.97 19.11,-419.97 74.11,-419.97 74.11,-460.97"/>
<text text-anchor="middle" x="46.61" y="-448.97" font-family="Helvetica,sans-Serif" font-size="10.00" fill="white">pandas.</text>
<text text-anchor="middle" x="46.61" y="-437.97" font-family="Helvetica,sans-Serif" font-size="10.00" fill="white">tseries.</text>
<text text-anchor="middle" x="46.61" y="-426.97" font-family="Helvetica,sans-Serif" font-size="10.00" fill="white">offsets</text>
</g>
<!-- pandas__libs&#45;&gt;pandas_tseries_offsets -->
<g id="edge8" class="edge">
<title>pandas__libs&#45;&gt;pandas_tseries_offsets</title><style>.edge>path:hover{stroke-width:8}</style>
<path fill="none" stroke="black" d="M74.61,-513.97C63.09,-502.45 56.21,-485.68 52.16,-471.17"/>
<polygon fill="blue" stroke="black" points="55.47,-469.98 49.68,-461.1 48.67,-471.65 55.47,-469.98"/>
</g>
<!-- pandas__libs_hashtable -->
<g id="node4" class="node">
<title>pandas__libs_hashtable</title><style>.edge>path:hover{stroke-width:8}</style>
<ellipse fill="#b65353" stroke="black" cx="906.61" cy="-172.99" rx="45.92" ry="28.98"/>
<text text-anchor="middle" x="906.61" y="-181.49" font-family="Helvetica,sans-Serif" font-size="10.00" fill="#ffffff">pandas.</text>
<text text-anchor="middle" x="906.61" y="-170.49" font-family="Helvetica,sans-Serif" font-size="10.00" fill="#ffffff">_libs.</text>
<text text-anchor="middle" x="906.61" y="-159.49" font-family="Helvetica,sans-Serif" font-size="10.00" fill="#ffffff">hashtable</text>
</g>
<!-- pandas__libs_hashtable&#45;&gt;pandas -->
<g id="edge9" class="edge">
<title>pandas__libs_hashtable&#45;&gt;pandas</title><style>.edge>path:hover{stroke-width:8}</style>
<path fill="none" stroke="black" d="M941.23,-153.59C947.93,-150.26 954.94,-146.92 961.61,-144 1024.11,-116.71 1083.86,-155.63 1105.61,-91"/>
</g>
<!-- pandas__libs_lib -->
<g id="node5" class="node">
<title>pandas__libs_lib</title><style>.edge>path:hover{stroke-width:8}</style>
<ellipse fill="#b65353" stroke="black" cx="1009.61" cy="-172.99" rx="38.78" ry="28.98"/>
<text text-anchor="middle" x="1009.61" y="-181.49" font-family="Helvetica,sans-Serif" font-size="10.00" fill="#ffffff">pandas.</text>
<text text-anchor="middle" x="1009.61" y="-170.49" font-family="Helvetica,sans-Serif" font-size="10.00" fill="#ffffff">_libs.</text>
<text text-anchor="middle" x="1009.61" y="-159.49" font-family="Helvetica,sans-Serif" font-size="10.00" fill="#ffffff">lib</text>
</g>
<!-- pandas__libs_lib&#45;&gt;pandas -->
<g id="edge10" class="edge">
<title>pandas__libs_lib&#45;&gt;pandas</title><style>.edge>path:hover{stroke-width:8}</style>
<path fill="none" stroke="black" d="M1038.13,-153C1064.39,-134.69 1100.08,-107.43 1105.61,-91"/>
</g>
<!-- pandas__libs_tslib -->
<g id="node6" class="node">
<title>pandas__libs_tslib</title><style>.edge>path:hover{stroke-width:8}</style>
<ellipse fill="#b65353" stroke="black" cx="1105.61" cy="-172.99" rx="38.78" ry="28.98"/>
<text text-anchor="middle" x="1105.61" y="-181.49" font-family="Helvetica,sans-Serif" font-size="10.00" fill="#ffffff">pandas.</text>
<text text-anchor="middle" x="1105.61" y="-170.49" font-family="Helvetica,sans-Serif" font-size="10.00" fill="#ffffff">_libs.</text>
<text text-anchor="middle" x="1105.61" y="-159.49" font-family="Helvetica,sans-Serif" font-size="10.00" fill="#ffffff">tslib</text>
</g>
<!-- pandas__libs_tslib&#45;&gt;pandas -->
<g id="edge11" class="edge">
<title>pandas__libs_tslib&#45;&gt;pandas</title><style>.edge>path:hover{stroke-width:8}</style>
<path fill="none" stroke="black" d="M1101.27,-143.91C1099.87,-127.99 1099.92,-107.92 1105.61,-91"/>
</g>
<!-- pandas__version -->
<g id="node7" class="node">
<title>pandas__version</title><style>.edge>path:hover{stroke-width:8}</style>
<ellipse fill="#c24747" stroke="black" cx="1172.61" cy="-357.97" rx="41.02" ry="21.43"/>
<text text-anchor="middle" x="1172.61" y="-360.97" font-family="Helvetica,sans-Serif" font-size="10.00" fill="#ffffff">pandas.</text>
<text text-anchor="middle" x="1172.61" y="-349.97" font-family="Helvetica,sans-Serif" font-size="10.00" fill="#ffffff">_version</text>
</g>
<!-- pandas__version&#45;&gt;pandas -->
<g id="edge12" class="edge">
<title>pandas__version&#45;&gt;pandas</title><style>.edge>path:hover{stroke-width:8}</style>
<path fill="none" stroke="black" d="M1170.47,-336.62C1169.07,-318.45 1168.21,-291.2 1172.61,-267.97"/>
<path fill="none" stroke="black" d="M1172.61,-265.97C1182.84,-212.07 1177.24,-193.52 1153.61,-144 1139.93,-115.32 1095.47,-121.12 1105.61,-91"/>
</g>
<!-- pandas_util__print_versions -->
<g id="node31" class="node">
<title>pandas_util__print_versions</title><style>.edge>path:hover{stroke-width:8}</style>
<polygon fill="blue" stroke="black" points="1292.11,-193.49 1201.11,-193.49 1201.11,-152.49 1292.11,-152.49 1292.11,-193.49"/>
<text text-anchor="middle" x="1246.61" y="-181.49" font-family="Helvetica,sans-Serif" font-size="10.00" fill="white">pandas.</text>
<text text-anchor="middle" x="1246.61" y="-170.49" font-family="Helvetica,sans-Serif" font-size="10.00" fill="white">util.</text>
<text text-anchor="middle" x="1246.61" y="-159.49" font-family="Helvetica,sans-Serif" font-size="10.00" fill="white">_print_versions</text>
</g>
<!-- pandas__version&#45;&gt;pandas_util__print_versions -->
<g id="edge13" class="edge">
<title>pandas__version&#45;&gt;pandas_util__print_versions</title><style>.edge>path:hover{stroke-width:8}</style>
<path fill="none" stroke="black" d="M1172.61,-265.97C1177.48,-240.31 1195.85,-217.39 1213.07,-200.86"/>
<polygon fill="#c24747" stroke="black" points="1215.84,-203.06 1220.85,-193.72 1211.11,-197.9 1215.84,-203.06"/>
</g>
<!-- pandas_api -->
<g id="node8" class="node">
<title>pandas_api</title><style>.edge>path:hover{stroke-width:8}</style>
<polygon fill="blue" stroke="black" points="1203.61,-108 1133.61,-108 1133.61,-72 1203.61,-72 1203.61,-108"/>
<text text-anchor="middle" x="1168.61" y="-87.5" font-family="Helvetica,sans-Serif" font-size="10.00" fill="white">pandas.api</text>
</g>
<!-- pandas_api&#45;&gt;pandas -->
<g id="edge14" class="edge">
<title>pandas_api&#45;&gt;pandas</title><style>.edge>path:hover{stroke-width:8}</style>
<path fill="none" stroke="black" d="M1160.7,-71.7C1157.06,-63.73 1152.66,-54.1 1148.62,-45.26"/>
<polygon fill="blue" stroke="black" points="1151.77,-43.74 1144.43,-36.1 1145.41,-46.65 1151.77,-43.74"/>
</g>
<!-- pandas_arrays -->
<g id="node9" class="node">
<title>pandas_arrays</title><style>.edge>path:hover{stroke-width:8}</style>
<polygon fill="blue" stroke="black" points="837.61,-108 751.61,-108 751.61,-72 837.61,-72 837.61,-108"/>
<text text-anchor="middle" x="794.61" y="-87.5" font-family="Helvetica,sans-Serif" font-size="10.00" fill="white">pandas.arrays</text>
</g>
<!-- pandas_arrays&#45;&gt;pandas -->
<g id="edge15" class="edge">
<title>pandas_arrays&#45;&gt;pandas</title><style>.edge>path:hover{stroke-width:8}</style>
<path fill="none" stroke="black" d="M837.93,-80.13C905.69,-66.26 1035.61,-39.67 1099.41,-26.62"/>
<polygon fill="blue" stroke="black" points="1100.33,-30 1109.42,-24.57 1098.92,-23.14 1100.33,-30"/>
</g>
<!-- pandas_compat -->
<g id="node10" class="node">
<title>pandas_compat</title><style>.edge>path:hover{stroke-width:8}</style>
<polygon fill="blue" stroke="black" points="1366.61,-375.97 1274.61,-375.97 1274.61,-339.97 1366.61,-339.97 1366.61,-375.97"/>
<text text-anchor="middle" x="1320.61" y="-355.47" font-family="Helvetica,sans-Serif" font-size="10.00" fill="white">pandas.compat</text>
</g>
<!-- pandas_compat&#45;&gt;pandas -->
<g id="edge16" class="edge">
<title>pandas_compat&#45;&gt;pandas</title><style>.edge>path:hover{stroke-width:8}</style>
<path fill="none" stroke="black" d="M1320.61,-265.97C1318.86,-211.07 1338.69,-183.6 1300.61,-144 1238.37,-79.26 1076.53,-175.97 1105.61,-91"/>
</g>
<!-- pandas_compat&#45;&gt;pandas_util__print_versions -->
<g id="edge17" class="edge">
<title>pandas_compat&#45;&gt;pandas_util__print_versions</title><style>.edge>path:hover{stroke-width:8}</style>
<path fill="none" stroke="black" d="M1320.94,-339.9C1321.2,-321.98 1321.41,-292.99 1320.61,-267.97"/>
<path fill="none" stroke="black" d="M1320.61,-265.97C1319.78,-239.8 1301.35,-216.85 1283.09,-200.41"/>
<polygon fill="blue" stroke="black" points="1285.21,-197.62 1275.33,-193.78 1280.66,-202.94 1285.21,-197.62"/>
</g>
<!-- pandas_util__tester -->
<g id="node32" class="node">
<title>pandas_util__tester</title><style>.edge>path:hover{stroke-width:8}</style>
<polygon fill="blue" stroke="black" points="1404.11,-193.49 1349.11,-193.49 1349.11,-152.49 1404.11,-152.49 1404.11,-193.49"/>
<text text-anchor="middle" x="1376.61" y="-181.49" font-family="Helvetica,sans-Serif" font-size="10.00" fill="white">pandas.</text>
<text text-anchor="middle" x="1376.61" y="-170.49" font-family="Helvetica,sans-Serif" font-size="10.00" fill="white">util.</text>
<text text-anchor="middle" x="1376.61" y="-159.49" font-family="Helvetica,sans-Serif" font-size="10.00" fill="white">_tester</text>
</g>
<!-- pandas_compat&#45;&gt;pandas_util__tester -->
<g id="edge18" class="edge">
<title>pandas_compat&#45;&gt;pandas_util__tester</title><style>.edge>path:hover{stroke-width:8}</style>
<path fill="none" stroke="black" d="M1320.61,-265.97C1319.84,-241.89 1334.05,-218.73 1348.34,-201.68"/>
<polygon fill="blue" stroke="black" points="1351.29,-203.63 1355.3,-193.83 1346.05,-198.99 1351.29,-203.63"/>
</g>
<!-- pandas_core -->
<g id="node11" class="node">
<title>pandas_core</title><style>.edge>path:hover{stroke-width:8}</style>
<ellipse fill="#f91010" stroke="black" cx="421.61" cy="-586.97" rx="44.98" ry="18"/>
<text text-anchor="middle" x="421.61" y="-584.47" font-family="Helvetica,sans-Serif" font-size="10.00" fill="#ffffff">pandas.core</text>
</g>
<!-- pandas_core&#45;&gt;pandas -->
<g id="edge19" class="edge">
<title>pandas_core&#45;&gt;pandas</title><style>.edge>path:hover{stroke-width:8}</style>
<path fill="none" stroke="black" d="M462.3,-579.31C534.42,-565.24 674.72,-526.55 647.61,-441.47"/>
<path fill="none" stroke="black" d="M647.61,-439.47C640.74,-388.71 583.69,-419.31 546.61,-383.97 503.36,-342.74 499.73,-323.88 478.61,-267.97"/>
</g>
<!-- pandas_core&#45;&gt;pandas_arrays -->
<g id="edge20" class="edge">
<title>pandas_core&#45;&gt;pandas_arrays</title><style>.edge>path:hover{stroke-width:8}</style>
<path fill="none" stroke="black" d="M647.61,-439.47C632.16,-393.47 646.17,-375.97 666.61,-331.97 675.39,-313.08 685.37,-313.5 696.61,-295.97 735.29,-235.67 768.41,-157.77 784.39,-117.59"/>
<polygon fill="#f91010" stroke="black" points="787.68,-118.81 788.08,-108.22 781.16,-116.24 787.68,-118.81"/>
</g>
<!-- pandas_util -->
<g id="node30" class="node">
<title>pandas_util</title><style>.edge>path:hover{stroke-width:8}</style>
<polygon fill="blue" stroke="black" points="348.11,-532.97 277.11,-532.97 277.11,-496.97 348.11,-496.97 348.11,-532.97"/>
<text text-anchor="middle" x="312.61" y="-512.47" font-family="Helvetica,sans-Serif" font-size="10.00" fill="white">pandas.util</text>
</g>
<!-- pandas_core&#45;&gt;pandas_util -->
<g id="edge21" class="edge">
<title>pandas_core&#45;&gt;pandas_util</title><style>.edge>path:hover{stroke-width:8}</style>
<path fill="none" stroke="black" d="M398.76,-571.29C383.98,-561.8 364.45,-549.26 347.73,-538.52"/>
<polygon fill="#f91010" stroke="black" points="349.58,-535.55 339.27,-533.09 345.8,-541.44 349.58,-535.55"/>
</g>
<!-- pandas_core_api&#45;&gt;pandas -->
<g id="edge22" class="edge">
<title>pandas_core_api&#45;&gt;pandas</title><style>.edge>path:hover{stroke-width:8}</style>
<path fill="none" stroke="black" d="M362.13,-152.31C371.71,-134.29 387.99,-107.91 408.61,-91"/>
</g>
<!-- pandas_core_arrays -->
<g id="node13" class="node">
<title>pandas_core_arrays</title><style>.edge>path:hover{stroke-width:8}</style>
<polygon fill="blue" stroke="black" points="804.11,-287.47 749.11,-287.47 749.11,-246.47 804.11,-246.47 804.11,-287.47"/>
<text text-anchor="middle" x="776.61" y="-275.47" font-family="Helvetica,sans-Serif" font-size="10.00" fill="white">pandas.</text>
<text text-anchor="middle" x="776.61" y="-264.47" font-family="Helvetica,sans-Serif" font-size="10.00" fill="white">core.</text>
<text text-anchor="middle" x="776.61" y="-253.47" font-family="Helvetica,sans-Serif" font-size="10.00" fill="white">arrays</text>
</g>
<!-- pandas_core_arrays&#45;&gt;pandas -->
<g id="edge23" class="edge">
<title>pandas_core_arrays&#45;&gt;pandas</title><style>.edge>path:hover{stroke-width:8}</style>
<path fill="none" stroke="black" d="M794.61,-171.99C804.33,-158.8 804.41,-152.18 818.61,-144 874.82,-111.64 1084.92,-152.47 1105.61,-91"/>
<path fill="none" stroke="black" d="M1105.61,-89C1110.58,-74.24 1117.49,-58.34 1123.53,-45.42"/>
<polygon fill="blue" stroke="black" points="1126.78,-46.73 1127.93,-36.19 1120.46,-43.71 1126.78,-46.73"/>
</g>
<!-- pandas_core_arrays&#45;&gt;pandas_arrays -->
<g id="edge24" class="edge">
<title>pandas_core_arrays&#45;&gt;pandas_arrays</title><style>.edge>path:hover{stroke-width:8}</style>
<path fill="none" stroke="black" d="M775.79,-246.46C775.92,-226.41 778.98,-195.22 794.61,-173.99"/>
<path fill="none" stroke="black" d="M794.61,-171.99C805.8,-156.8 805.26,-135.29 802.22,-118.25"/>
<polygon fill="blue" stroke="black" points="805.6,-117.36 800.08,-108.32 798.76,-118.83 805.6,-117.36"/>
</g>
<!-- pandas_core_arrays&#45;&gt;pandas_core_api -->
<g id="edge25" class="edge">
<title>pandas_core_arrays&#45;&gt;pandas_core_api</title><style>.edge>path:hover{stroke-width:8}</style>
<path fill="none" stroke="black" d="M748.94,-258.22C726.17,-252.05 693,-243.57 663.61,-237.98 545.12,-215.45 507.48,-244.53 394.61,-201.98 392.09,-201.03 389.56,-199.9 387.07,-198.65"/>
<polygon fill="blue" stroke="black" points="388.71,-195.56 378.28,-193.71 385.28,-201.66 388.71,-195.56"/>
</g>
<!-- pandas_core_arrays_sparse -->
<g id="node14" class="node">
<title>pandas_core_arrays_sparse</title><style>.edge>path:hover{stroke-width:8}</style>
<polygon fill="blue" stroke="black" points="804.11,-383.97 749.11,-383.97 749.11,-331.97 804.11,-331.97 804.11,-383.97"/>
<text text-anchor="middle" x="776.61" y="-371.97" font-family="Helvetica,sans-Serif" font-size="10.00" fill="white">pandas.</text>
<text text-anchor="middle" x="776.61" y="-360.97" font-family="Helvetica,sans-Serif" font-size="10.00" fill="white">core.</text>
<text text-anchor="middle" x="776.61" y="-349.97" font-family="Helvetica,sans-Serif" font-size="10.00" fill="white">arrays.</text>
<text text-anchor="middle" x="776.61" y="-338.97" font-family="Helvetica,sans-Serif" font-size="10.00" fill="white">sparse</text>
</g>
<!-- pandas_core_arrays_sparse&#45;&gt;pandas -->
<g id="edge26" class="edge">
<title>pandas_core_arrays_sparse&#45;&gt;pandas</title><style>.edge>path:hover{stroke-width:8}</style>
<path fill="none" stroke="black" d="M796.88,-331.71C809.37,-314.72 824.5,-291.24 832.61,-267.97"/>
</g>
<!-- pandas_core_arrays_sparse&#45;&gt;pandas_core_arrays -->
<g id="edge27" class="edge">
<title>pandas_core_arrays_sparse&#45;&gt;pandas_core_arrays</title><style>.edge>path:hover{stroke-width:8}</style>
<path fill="none" stroke="black" d="M776.61,-331.7C776.61,-321.11 776.61,-308.72 776.61,-297.69"/>
<polygon fill="blue" stroke="black" points="780.11,-297.64 776.61,-287.64 773.11,-297.64 780.11,-297.64"/>
</g>
<!-- pandas_core_computation -->
<g id="node15" class="node">
<title>pandas_core_computation</title><style>.edge>path:hover{stroke-width:8}</style>
<ellipse fill="#ce3b3b" stroke="black" cx="599.61" cy="-266.97" rx="55.31" ry="28.98"/>
<text text-anchor="middle" x="599.61" y="-275.47" font-family="Helvetica,sans-Serif" font-size="10.00" fill="#ffffff">pandas.</text>
<text text-anchor="middle" x="599.61" y="-264.47" font-family="Helvetica,sans-Serif" font-size="10.00" fill="#ffffff">core.</text>
<text text-anchor="middle" x="599.61" y="-253.47" font-family="Helvetica,sans-Serif" font-size="10.00" fill="#ffffff">computation</text>
</g>
<!-- pandas_core_computation&#45;&gt;pandas -->
<g id="edge28" class="edge">
<title>pandas_core_computation&#45;&gt;pandas</title><style>.edge>path:hover{stroke-width:8}</style>
<path fill="none" stroke="black" d="M555.6,-249.38C499.5,-227.57 409.59,-190.16 408.61,-173.99"/>
</g>
<!-- pandas_core_computation&#45;&gt;pandas_core_config_init -->
<g id="edge29" class="edge">
<title>pandas_core_computation&#45;&gt;pandas_core_config_init</title><style>.edge>path:hover{stroke-width:8}</style>
<path fill="none" stroke="black" d="M599.61,-237.88C599.61,-227.18 599.61,-214.95 599.61,-204.07"/>
<polygon fill="#ce3b3b" stroke="black" points="603.11,-203.76 599.61,-193.76 596.11,-203.76 603.11,-203.76"/>
</g>
<!-- pandas_core_computation_api -->
<g id="node16" class="node">
<title>pandas_core_computation_api</title><style>.edge>path:hover{stroke-width:8}</style>
<polygon fill="blue" stroke="black" points="1473.11,-292.97 1392.11,-292.97 1392.11,-240.97 1473.11,-240.97 1473.11,-292.97"/>
<text text-anchor="middle" x="1432.61" y="-280.97" font-family="Helvetica,sans-Serif" font-size="10.00" fill="white">pandas.</text>
<text text-anchor="middle" x="1432.61" y="-269.97" font-family="Helvetica,sans-Serif" font-size="10.00" fill="white">core.</text>
<text text-anchor="middle" x="1432.61" y="-258.97" font-family="Helvetica,sans-Serif" font-size="10.00" fill="white">computation.</text>
<text text-anchor="middle" x="1432.61" y="-247.97" font-family="Helvetica,sans-Serif" font-size="10.00" fill="white">api</text>
</g>
<!-- pandas_core_computation_api&#45;&gt;pandas -->
<g id="edge30" class="edge">
<title>pandas_core_computation_api&#45;&gt;pandas</title><style>.edge>path:hover{stroke-width:8}</style>
<path fill="none" stroke="black" d="M1432.32,-240.88C1432.95,-215.3 1436.59,-175.06 1451.61,-144 1465.58,-115.12 1520.98,-115.79 1500.61,-91"/>
<path fill="none" stroke="black" d="M1500.61,-89C1458.43,-39.91 1257.81,-24.75 1173.78,-20.5"/>
<polygon fill="blue" stroke="black" points="1173.81,-17 1163.66,-20.02 1173.48,-23.99 1173.81,-17"/>
</g>
<!-- pandas_core_config_init&#45;&gt;pandas -->
<g id="edge31" class="edge">
<title>pandas_core_config_init&#45;&gt;pandas</title><style>.edge>path:hover{stroke-width:8}</style>
<path fill="none" stroke="black" d="M565.89,-168.34C497.52,-159.88 353.55,-136.17 408.61,-91"/>
</g>
<!-- pandas_core_reshape -->
<g id="node18" class="node">
<title>pandas_core_reshape</title><style>.edge>path:hover{stroke-width:8}</style>
<ellipse fill="#c24747" stroke="black" cx="1500.61" cy="-172.99" rx="39.7" ry="28.98"/>
<text text-anchor="middle" x="1500.61" y="-181.49" font-family="Helvetica,sans-Serif" font-size="10.00" fill="#ffffff">pandas.</text>
<text text-anchor="middle" x="1500.61" y="-170.49" font-family="Helvetica,sans-Serif" font-size="10.00" fill="#ffffff">core.</text>
<text text-anchor="middle" x="1500.61" y="-159.49" font-family="Helvetica,sans-Serif" font-size="10.00" fill="#ffffff">reshape</text>
</g>
<!-- pandas_core_reshape&#45;&gt;pandas -->
<g id="edge32" class="edge">
<title>pandas_core_reshape&#45;&gt;pandas</title><style>.edge>path:hover{stroke-width:8}</style>
<path fill="none" stroke="black" d="M1508.76,-144.26C1512.01,-127.07 1512.57,-105.56 1500.61,-91"/>
</g>
<!-- pandas_core_reshape_api -->
<g id="node19" class="node">
<title>pandas_core_reshape_api</title><style>.edge>path:hover{stroke-width:8}</style>
<polygon fill="blue" stroke="black" points="1598.11,-292.97 1539.11,-292.97 1539.11,-240.97 1598.11,-240.97 1598.11,-292.97"/>
<text text-anchor="middle" x="1568.61" y="-280.97" font-family="Helvetica,sans-Serif" font-size="10.00" fill="white">pandas.</text>
<text text-anchor="middle" x="1568.61" y="-269.97" font-family="Helvetica,sans-Serif" font-size="10.00" fill="white">core.</text>
<text text-anchor="middle" x="1568.61" y="-258.97" font-family="Helvetica,sans-Serif" font-size="10.00" fill="white">reshape.</text>
<text text-anchor="middle" x="1568.61" y="-247.97" font-family="Helvetica,sans-Serif" font-size="10.00" fill="white">api</text>
</g>
<!-- pandas_core_reshape_api&#45;&gt;pandas -->
<g id="edge33" class="edge">
<title>pandas_core_reshape_api&#45;&gt;pandas</title><style>.edge>path:hover{stroke-width:8}</style>
<path fill="none" stroke="black" d="M1568.91,-240.88C1568.28,-215.3 1564.63,-175.06 1549.61,-144 1535.65,-115.12 1521.52,-115.33 1500.61,-91"/>
</g>
<!-- pandas_errors&#45;&gt;pandas -->
<g id="edge34" class="edge">
<title>pandas_errors&#45;&gt;pandas</title><style>.edge>path:hover{stroke-width:8}</style>
<path fill="none" stroke="black" d="M409.23,-248.66C409.75,-230.16 410.18,-199.97 408.61,-173.99"/>
</g>
<!-- pandas_io -->
<g id="node21" class="node">
<title>pandas_io</title><style>.edge>path:hover{stroke-width:8}</style>
<polygon fill="blue" stroke="black" points="619.61,-375.97 555.61,-375.97 555.61,-339.97 619.61,-339.97 619.61,-375.97"/>
<text text-anchor="middle" x="587.61" y="-355.47" font-family="Helvetica,sans-Serif" font-size="10.00" fill="white">pandas.io</text>
</g>
<!-- pandas_io&#45;&gt;pandas -->
<g id="edge35" class="edge">
<title>pandas_io&#45;&gt;pandas</title><style>.edge>path:hover{stroke-width:8}</style>
<path fill="none" stroke="black" d="M619.76,-346.27C634.04,-341.66 651.1,-336.33 666.61,-331.97 742.73,-310.56 806.59,-342.64 832.61,-267.97"/>
<path fill="none" stroke="black" d="M832.61,-265.97C850.67,-214.17 813.82,-183.78 851.61,-144 931.04,-60.4 1067.73,-199.92 1105.61,-91"/>
</g>
<!-- pandas_io&#45;&gt;pandas_core_api -->
<g id="edge36" class="edge">
<title>pandas_io&#45;&gt;pandas_core_api</title><style>.edge>path:hover{stroke-width:8}</style>
<path fill="none" stroke="black" d="M571.59,-339.85C548.22,-315.45 502.72,-270.06 458.61,-237.98 432.22,-218.79 422.43,-219.04 394.61,-201.98 392.73,-200.83 390.81,-199.63 388.88,-198.41"/>
<polygon fill="blue" stroke="black" points="390.74,-195.44 380.44,-192.96 386.94,-201.32 390.74,-195.44"/>
</g>
<!-- pandas_io&#45;&gt;pandas_core_config_init -->
<g id="edge37" class="edge">
<title>pandas_io&#45;&gt;pandas_core_config_init</title><style>.edge>path:hover{stroke-width:8}</style>
<path fill="none" stroke="black" d="M612.67,-339.72C640.43,-319.71 681.46,-287.04 682.61,-267.97"/>
</g>
<!-- pandas_io_api -->
<g id="node22" class="node">
<title>pandas_io_api</title><style>.edge>path:hover{stroke-width:8}</style>
<polygon fill="blue" stroke="black" points="942.61,-375.97 860.61,-375.97 860.61,-339.97 942.61,-339.97 942.61,-375.97"/>
<text text-anchor="middle" x="901.61" y="-355.47" font-family="Helvetica,sans-Serif" font-size="10.00" fill="white">pandas.io.api</text>
</g>
<!-- pandas_io_api&#45;&gt;pandas -->
<g id="edge38" class="edge">
<title>pandas_io_api&#45;&gt;pandas</title><style>.edge>path:hover{stroke-width:8}</style>
<path fill="none" stroke="black" d="M873.21,-339.7C850.04,-323.18 822.64,-296.59 832.61,-267.97"/>
</g>
<!-- pandas_io_json -->
<g id="node23" class="node">
<title>pandas_io_json</title><style>.edge>path:hover{stroke-width:8}</style>
<polygon fill="blue" stroke="black" points="876.11,-458.47 789.11,-458.47 789.11,-422.47 876.11,-422.47 876.11,-458.47"/>
<text text-anchor="middle" x="832.61" y="-437.97" font-family="Helvetica,sans-Serif" font-size="10.00" fill="white">pandas.io.json</text>
</g>
<!-- pandas_io_json&#45;&gt;pandas -->
<g id="edge39" class="edge">
<title>pandas_io_json&#45;&gt;pandas</title><style>.edge>path:hover{stroke-width:8}</style>
<path fill="none" stroke="black" d="M828.45,-422.32C821.59,-390.47 810.74,-320.63 832.61,-267.97"/>
</g>
<!-- pandas_io_json&#45;&gt;pandas_io -->
<g id="edge40" class="edge">
<title>pandas_io_json&#45;&gt;pandas_io</title><style>.edge>path:hover{stroke-width:8}</style>
<path fill="none" stroke="black" d="M789.09,-425.17C743.97,-410.34 673.91,-387.32 629.43,-372.7"/>
<polygon fill="blue" stroke="black" points="630.39,-369.34 619.79,-369.54 628.2,-375.99 630.39,-369.34"/>
</g>
<!-- pandas_io_json&#45;&gt;pandas_io_api -->
<g id="edge41" class="edge">
<title>pandas_io_json&#45;&gt;pandas_io_api</title><style>.edge>path:hover{stroke-width:8}</style>
<path fill="none" stroke="black" d="M847.25,-422.39C856.85,-411.19 869.57,-396.34 880.3,-383.83"/>
<polygon fill="blue" stroke="black" points="883.15,-385.88 887,-376.01 877.84,-381.33 883.15,-385.88"/>
</g>
<!-- pandas_io_json__normalize&#45;&gt;pandas -->
<g id="edge42" class="edge">
<title>pandas_io_json__normalize&#45;&gt;pandas</title><style>.edge>path:hover{stroke-width:8}</style>
<path fill="none" stroke="black" d="M310.19,-246.06C343.49,-227.42 388.19,-202.36 388.61,-201.98 400,-191.78 409.54,-189.25 408.61,-173.99"/>
<path fill="none" stroke="black" d="M408.61,-171.99C406.44,-136.06 380.78,-113.83 408.61,-91"/>
</g>
<!-- pandas_plotting -->
<g id="node25" class="node">
<title>pandas_plotting</title><style>.edge>path:hover{stroke-width:8}</style>
<polygon fill="blue" stroke="black" points="731.11,-375.97 676.11,-375.97 676.11,-339.97 731.11,-339.97 731.11,-375.97"/>
<text text-anchor="middle" x="703.61" y="-360.97" font-family="Helvetica,sans-Serif" font-size="10.00" fill="white">pandas.</text>
<text text-anchor="middle" x="703.61" y="-349.97" font-family="Helvetica,sans-Serif" font-size="10.00" fill="white">plotting</text>
</g>
<!-- pandas_plotting&#45;&gt;pandas -->
<g id="edge43" class="edge">
<title>pandas_plotting&#45;&gt;pandas</title><style>.edge>path:hover{stroke-width:8}</style>
<path fill="none" stroke="black" d="M727.3,-339.78C731.34,-337.06 735.55,-334.36 739.61,-331.97 782.84,-306.49 816.1,-315.35 832.61,-267.97"/>
</g>
<!-- pandas_plotting&#45;&gt;pandas_core_config_init -->
<g id="edge44" class="edge">
<title>pandas_plotting&#45;&gt;pandas_core_config_init</title><style>.edge>path:hover{stroke-width:8}</style>
<path fill="none" stroke="black" d="M696.45,-339.84C689.78,-322.11 681.07,-293.49 682.61,-267.97"/>
</g>
<!-- pandas_testing -->
<g id="node26" class="node">
<title>pandas_testing</title><style>.edge>path:hover{stroke-width:8}</style>
<polygon fill="blue" stroke="black" points="1618.11,-108 1529.11,-108 1529.11,-72 1618.11,-72 1618.11,-108"/>
<text text-anchor="middle" x="1573.61" y="-87.5" font-family="Helvetica,sans-Serif" font-size="10.00" fill="white">pandas.testing</text>
</g>
<!-- pandas_testing&#45;&gt;pandas -->
<g id="edge45" class="edge">
<title>pandas_testing&#45;&gt;pandas</title><style>.edge>path:hover{stroke-width:8}</style>
<path fill="none" stroke="black" d="M1529,-75.43C1524.17,-74.17 1519.3,-73 1514.61,-72 1391.26,-45.72 1242.4,-29.22 1174.13,-22.49"/>
<polygon fill="blue" stroke="black" points="1174.18,-18.97 1163.89,-21.49 1173.5,-25.94 1174.18,-18.97"/>
</g>
<!-- pandas_tseries -->
<g id="node27" class="node">
<title>pandas_tseries</title><style>.edge>path:hover{stroke-width:8}</style>
<polygon fill="blue" stroke="black" points="208.61,-375.97 120.61,-375.97 120.61,-339.97 208.61,-339.97 208.61,-375.97"/>
<text text-anchor="middle" x="164.61" y="-355.47" font-family="Helvetica,sans-Serif" font-size="10.00" fill="white">pandas.tseries</text>
</g>
<!-- pandas_tseries&#45;&gt;pandas -->
<g id="edge46" class="edge">
<title>pandas_tseries&#45;&gt;pandas</title><style>.edge>path:hover{stroke-width:8}</style>
<path fill="none" stroke="black" d="M162.9,-339.72C161.78,-321.15 162.11,-291.14 172.61,-267.97"/>
<path fill="none" stroke="black" d="M172.61,-265.97C189.5,-228.74 141.72,-200.77 172.61,-173.99"/>
</g>
<!-- pandas_tseries&#45;&gt;pandas_core_api -->
<g id="edge47" class="edge">
<title>pandas_tseries&#45;&gt;pandas_core_api</title><style>.edge>path:hover{stroke-width:8}</style>
<path fill="none" stroke="black" d="M172.61,-265.97C197.49,-211.12 269.92,-188.47 314.95,-179.5"/>
<polygon fill="blue" stroke="black" points="315.75,-182.92 324.94,-177.65 314.47,-176.03 315.75,-182.92"/>
</g>
<!-- pandas_tseries_api -->
<g id="node28" class="node">
<title>pandas_tseries_api</title><style>.edge>path:hover{stroke-width:8}</style>
<polygon fill="blue" stroke="black" points="102.11,-378.47 47.11,-378.47 47.11,-337.47 102.11,-337.47 102.11,-378.47"/>
<text text-anchor="middle" x="74.61" y="-366.47" font-family="Helvetica,sans-Serif" font-size="10.00" fill="white">pandas.</text>
<text text-anchor="middle" x="74.61" y="-355.47" font-family="Helvetica,sans-Serif" font-size="10.00" fill="white">tseries.</text>
<text text-anchor="middle" x="74.61" y="-344.47" font-family="Helvetica,sans-Serif" font-size="10.00" fill="white">api</text>
</g>
<!-- pandas_tseries_api&#45;&gt;pandas -->
<g id="edge48" class="edge">
<title>pandas_tseries_api&#45;&gt;pandas</title><style>.edge>path:hover{stroke-width:8}</style>
<path fill="none" stroke="black" d="M69.06,-337.32C64.84,-318.15 61.72,-288.89 74.61,-267.97"/>
</g>
<!-- pandas_tseries_offsets&#45;&gt;pandas -->
<g id="edge49" class="edge">
<title>pandas_tseries_offsets&#45;&gt;pandas</title><style>.edge>path:hover{stroke-width:8}</style>
<path fill="none" stroke="black" d="M32.68,-419.82C22.94,-403.65 12.65,-380.04 18.61,-358.97"/>
</g>
<!-- pandas_tseries_offsets&#45;&gt;pandas_core_api -->
<g id="edge50" class="edge">
<title>pandas_tseries_offsets&#45;&gt;pandas_core_api</title><style>.edge>path:hover{stroke-width:8}</style>
<path fill="none" stroke="black" d="M74.36,-425.81C79.06,-423.72 83.94,-421.69 88.61,-419.97 144.46,-399.36 181.62,-431.38 217.61,-383.97 248.84,-342.83 197.16,-317.84 210.61,-267.97"/>
<path fill="none" stroke="black" d="M210.61,-265.97C224.37,-220.35 277.73,-195.61 314.96,-183.61"/>
<polygon fill="blue" stroke="black" points="316.45,-186.81 324.99,-180.55 314.41,-180.12 316.45,-186.81"/>
</g>
<!-- pandas_tseries_offsets&#45;&gt;pandas_tseries -->
<g id="edge51" class="edge">
<title>pandas_tseries_offsets&#45;&gt;pandas_tseries</title><style>.edge>path:hover{stroke-width:8}</style>
<path fill="none" stroke="black" d="M74.28,-420.59C91.26,-409.01 113.11,-394.1 131.07,-381.85"/>
<polygon fill="blue" stroke="black" points="133.24,-384.6 139.53,-376.08 129.3,-378.82 133.24,-384.6"/>
</g>
<!-- pandas_tseries_offsets&#45;&gt;pandas_tseries_api -->
<g id="edge52" class="edge">
<title>pandas_tseries_offsets&#45;&gt;pandas_tseries_api</title><style>.edge>path:hover{stroke-width:8}</style>
<path fill="none" stroke="black" d="M53.53,-419.57C56.82,-410.11 60.82,-398.62 64.44,-388.2"/>
<polygon fill="blue" stroke="black" points="67.79,-389.23 67.77,-378.64 61.18,-386.93 67.79,-389.23"/>
</g>
<!-- pandas_util&#45;&gt;pandas -->
<g id="edge53" class="edge">
<title>pandas_util&#45;&gt;pandas</title><style>.edge>path:hover{stroke-width:8}</style>
<path fill="none" stroke="black" d="M338.61,-356.97C342.11,-303.53 335.06,-286.56 357.61,-237.98 372.93,-205 410.81,-210.29 408.61,-173.99"/>
</g>
<!-- pandas_util&#45;&gt;pandas_errors -->
<g id="edge54" class="edge">
<title>pandas_util&#45;&gt;pandas_errors</title><style>.edge>path:hover{stroke-width:8}</style>
<path fill="none" stroke="black" d="M338.61,-356.97C340.32,-330.94 359.06,-307.99 376.72,-291.91"/>
<polygon fill="blue" stroke="black" points="379.41,-294.21 384.69,-285.03 374.83,-288.91 379.41,-294.21"/>
</g>
<!-- pandas_util&#45;&gt;pandas_io_json__normalize -->
<g id="edge55" class="edge">
<title>pandas_util&#45;&gt;pandas_io_json__normalize</title><style>.edge>path:hover{stroke-width:8}</style>
<path fill="none" stroke="black" d="M317.26,-496.92C324.58,-468.54 338.06,-409.71 338.61,-358.97"/>
<path fill="none" stroke="black" d="M338.61,-356.97C340.01,-335.59 327.8,-315.8 313.68,-300.34"/>
<polygon fill="blue" stroke="black" points="316.13,-297.84 306.65,-293.11 311.12,-302.72 316.13,-297.84"/>
</g>
<!-- pandas_util__print_versions&#45;&gt;pandas -->
<g id="edge56" class="edge">
<title>pandas_util__print_versions&#45;&gt;pandas</title><style>.edge>path:hover{stroke-width:8}</style>
<path fill="none" stroke="black" d="M1206.65,-152.36C1176.88,-137.5 1139.01,-117.99 1124.61,-108 1115.3,-101.54 1102,-101.74 1105.61,-91"/>
</g>
<!-- pandas_util__tester&#45;&gt;pandas -->
<g id="edge57" class="edge">
<title>pandas_util__tester&#45;&gt;pandas</title><style>.edge>path:hover{stroke-width:8}</style>
<path fill="none" stroke="black" d="M1350.89,-152.44C1345.71,-149.21 1340.15,-146.2 1334.61,-144 1237.55,-105.37 1072.29,-190.01 1105.61,-91"/>
</g>
</g>
</svg>
